<svg width="17" height="16" viewBox="0 0 17 16" fill="none" xmlns="http://www.w3.org/2000/svg">
<path d="M15.543 7H9.54297V1C9.54297 0.734784 9.43761 0.48043 9.25008 0.292893C9.06254 0.105357 8.80819 0 8.54297 0C8.27775 0 8.0234 0.105357 7.83586 0.292893C7.64833 0.48043 7.54297 0.734784 7.54297 1V7H1.54297C1.27775 7 1.0234 7.10536 0.835862 7.29289C0.648326 7.48043 0.542969 7.73478 0.542969 8C0.542969 8.26522 0.648326 8.51957 0.835862 8.70711C1.0234 8.89464 1.27775 9 1.54297 9H7.54297V15C7.54297 15.2652 7.64833 15.5196 7.83586 15.7071C8.0234 15.8946 8.27775 16 8.54297 16C8.80819 16 9.06254 15.8946 9.25008 15.7071C9.43761 15.5196 9.54297 15.2652 9.54297 15V9H15.543C15.8082 9 16.0625 8.89464 16.2501 8.70711C16.4376 8.51957 16.543 8.26522 16.543 8C16.543 7.73478 16.4376 7.48043 16.2501 7.29289C16.0625 7.10536 15.8082 7 15.543 7Z" fill="#BDBDBD"/>
</svg>
